<svg width="80" height="40" viewBox="0 0 80 40" fill="none" xmlns="http://www.w3.org/2000/svg">
<path d="M65.4293 32.4756C64.9118 32.4756 64.3977 32.3878 63.8874 32.2124C63.3767 32.0372 62.9443 31.7876 62.5898 31.4638L63.2599 29.7912C63.5433 30.0521 63.8729 30.2589 64.2488 30.4116C64.6246 30.5647 65.0039 30.6409 65.3868 30.6409C65.8193 30.6409 66.1594 30.533 66.4077 30.3173C66.6558 30.1015 66.7799 29.8048 66.7799 29.4269C66.7799 29.0674 66.67 28.7842 66.4503 28.5772C66.2305 28.3704 65.8759 28.267 65.3868 28.267H64.5999V26.8236L66.6735 23.8426L66.865 24.6249H62.9621V22.8715H68.1731V24.2877L66.11 27.2687L65.2379 26.6348H65.7377C66.6522 26.6348 67.3435 26.8957 67.8115 27.4171C68.2794 27.9387 68.5133 28.6089 68.5133 29.4269C68.5133 29.9578 68.4033 30.4544 68.1837 30.9175C67.9639 31.3807 67.6269 31.7562 67.1733 32.0437C66.7197 32.3316 66.138 32.4756 65.4293 32.4756Z" fill="#00CD81"/>
<path d="M70.5768 32.3135V23.6805L71.3212 24.6248H69.0879V22.8712H72.2996V32.3135H70.5768Z" fill="#00CD81"/>
<path d="M28.381 22.0388H32.6457C31.6522 27.9616 26.5008 32.4751 20.2951 32.4751C14.0892 32.4751 8.93781 27.9616 7.94428 22.0388C7.83076 21.3601 7.77148 20.663 7.77148 19.9517C7.77148 19.2404 7.83076 18.5432 7.94428 17.8642C8.93857 11.9415 14.0892 7.42809 20.2951 7.42809C26.5 7.42809 31.6513 11.9415 32.6457 17.8642H28.381C27.4542 14.2634 24.1847 11.6026 20.2951 11.6026C16.4043 11.6026 13.1358 14.2634 12.209 17.8642H20.2951V22.0388H12.209C13.1358 25.6397 16.4043 28.3006 20.2951 28.3006C24.1847 28.3006 27.4542 25.6397 28.381 22.0388Z" fill="#003C3C"/>
<path d="M72.299 19.952H68.1245C68.1245 15.3408 64.3866 11.6029 59.7754 11.6029C55.8848 11.6029 52.6162 14.2638 51.6894 17.8647H59.7754V22.0392H51.6894C52.6162 25.6401 55.8848 28.301 59.7754 28.301V32.4756C53.5697 32.4756 48.4183 27.9619 47.4248 22.0392C47.3112 21.3605 47.252 20.6633 47.252 19.952C47.252 19.2407 47.3112 18.5435 47.4248 17.8647C48.4192 11.9419 53.5706 7.42843 59.7754 7.42843C66.6918 7.42843 72.299 13.0356 72.299 19.952Z" fill="#003C3C"/>
<path d="M48.3693 28.301V32.4756H35.8457V7.42843H40.0202V28.301H48.3693Z" fill="#003C3C"/>
</svg>
